<?xml version="1.0" encoding="utf-8"?>
<!-- Generator: Adobe Illustrator 27.9.4, SVG Export Plug-In . SVG Version: 9.03 Build 54784)  -->
<svg version="1.1" id="Layer_1" xmlns="http://www.w3.org/2000/svg" xmlns:xlink="http://www.w3.org/1999/xlink" x="0px" y="0px"
	 viewBox="0 0 201.5 54" style="enable-background:new 0 0 201.5 54;" xml:space="preserve">
<g>
	<path style="fill:#221D21;stroke:#221D21;" d="M200.5,10.5v33c0,5.5-4.5,10-10,10h-180c-5.5,0-10-4.5-10-10v-33c0-5.5,4.5-10,10-10
		h180C196,0.5,200.5,5,200.5,10.5z"/>
	<text transform="matrix(1 0 0 1 53 20)" style="fill:#EEF2FF; font-family:'Helvetica-Bold'; font-size:9px;">CEREBRAL PALSY ALLIANCE</text>
	<text transform="matrix(1 0 0 1 52 40)" style="fill:#EEF2FF; font-family:'Helvetica-Bold'; font-size:16px;">Eye Gaze Partner</text>
	<path style="fill:#DE7818;" d="M21.3,29.4l-4,8.5c-0.1,0.3,0,0.4,0.4,0.3l3.3-0.7c0.1,0,0.3,0,0.3,0.1c0,0,0,0,0,0l1.5,3
		c0.1,0.3,0.3,0.4,0.4,0.1l4.3-8.9C27.5,31.9,21.3,29.4,21.3,29.4z"/>
	<path style="fill:#DE7818;" d="M33.7,29.4l4,8.5c0.1,0.3,0,0.4-0.4,0.3L34,37.5c-0.1,0-0.3,0-0.3,0.2c0,0,0,0,0,0l-1.5,3
		c-0.1,0.3-0.3,0.4-0.4,0.1l-4.3-8.9C27.5,31.9,33.7,29.4,33.7,29.4z"/>
	<path style="fill:#B35454;" d="M26.3,34.4C26.3,34.4,26.3,34.4,26.3,34.4c-2.3-0.2-4.4-1.2-6-2.7c0,0,0,0,0,0l0.2-0.4c0,0,0,0,0,0
		c1.6,1.5,3.8,2.4,6,2.7c0,0,0,0,0,0C26.5,33.9,26.3,34.4,26.3,34.4z"/>
	<path style="fill:#F0CD0A;" d="M38,23.5C38,29.3,33.3,34,27.5,34S17,29.3,17,23.5C17,17.7,21.7,13,27.5,13S38,17.7,38,23.5z"/>
	<path style="fill:#D2B309;" d="M36.5,23.5c0,5-4,9-9,9s-9-4-9-9c0,0,0,0,0,0c0-5,4.1-9,9-9C32.5,14.4,36.5,18.5,36.5,23.5z"/>
	<path style="fill:#E3C101;" d="M36.5,23.8c0,4.8-3.9,8.8-8.8,8.8S19,28.6,19,23.8s3.9-8.8,8.8-8.8S36.5,18.9,36.5,23.8z"/>
	<path style="fill:#FFF2B5;" d="M27.5,27.8h2.1v-8.5h-2.1l-2.1,1.5v1.9l2-1.4h0.1C27.5,21.2,27.5,27.8,27.5,27.8z"/>
	<path style="fill:#FFFFFF;fill-opacity:0.2;" d="M30,16.1c4.1,1,6.6,5.1,5.6,9.2c-0.6,2.7-2.6,4.8-5.3,5.5c2-1.6,3.4-4.2,3.4-7.2
		C33.7,20.4,32.2,17.6,30,16.1L30,16.1z"/>
	<path style="fill:#B35454;" d="M28.7,34.4C28.7,34.4,28.7,34.4,28.7,34.4c2.3-0.3,4.4-1.2,6-2.7c0,0,0,0,0,0l-0.2-0.4c0,0,0,0,0,0
		c-1.6,1.5-3.8,2.4-6,2.6c0,0,0,0,0,0C28.5,33.9,28.7,34.4,28.7,34.4z"/>
</g>
</svg>
