<?xml version="1.0" encoding="UTF-8"?>
<svg xmlns="http://www.w3.org/2000/svg" version="1.1" viewBox="0 0 517.98 476.6">
  <defs>
    <style>
      .cls-1 {
        fill: #863724;
      }

      .cls-1, .cls-2, .cls-3, .cls-4, .cls-5, .cls-6, .cls-7, .cls-8, .cls-9, .cls-10, .cls-11, .cls-12, .cls-13, .cls-14, .cls-15, .cls-16, .cls-17, .cls-18, .cls-19, .cls-20, .cls-21, .cls-22, .cls-23, .cls-24, .cls-25, .cls-26, .cls-27 {
        stroke: #010101;
      }

      .cls-1, .cls-2, .cls-3, .cls-4, .cls-5, .cls-7, .cls-8, .cls-10, .cls-11, .cls-12, .cls-13, .cls-14, .cls-15, .cls-17, .cls-19, .cls-28, .cls-20, .cls-21, .cls-22, .cls-23, .cls-26, .cls-27 {
        stroke-linecap: round;
        stroke-linejoin: round;
      }

      .cls-1, .cls-2, .cls-3, .cls-6, .cls-7, .cls-9, .cls-10, .cls-11, .cls-12, .cls-13, .cls-14, .cls-17, .cls-19, .cls-21, .cls-22, .cls-24, .cls-26, .cls-27 {
        stroke-width: .25px;
      }

      .cls-2 {
        fill: #482213;
      }

      .cls-29 {
        fill: #c43d3c;
      }

      .cls-30 {
        fill: #010101;
      }

      .cls-3, .cls-4, .cls-5 {
        fill: #efcfad;
      }

      .cls-4 {
        stroke-width: .25px;
      }

      .cls-5 {
        stroke-width: .25px;
      }

      .cls-6 {
        fill: #d79ec7;
      }

      .cls-6, .cls-9, .cls-31, .cls-16, .cls-18, .cls-24, .cls-25 {
        stroke-miterlimit: 10;
      }

      .cls-7 {
        fill: #ea403f;
      }

      .cls-8, .cls-10, .cls-28, .cls-20 {
        fill: none;
      }

      .cls-8, .cls-28 {
        stroke-width: .75px;
      }

      .cls-9 {
        fill: #3d2411;
      }

      .cls-32 {
        fill: #f9d8e7;
      }

      .cls-33 {
        fill: #f8e2d2;
      }

      .cls-11 {
        fill: #dd8062;
      }

      .cls-34 {
        fill: #eceef7;
      }

      .cls-31 {
        fill: #f5c751;
        stroke-width: .48px;
      }

      .cls-31, .cls-28 {
        stroke: #0d0a0a;
      }

      .cls-12 {
        fill: #eecfad;
      }

      .cls-35 {
        fill: #fff;
      }

      .cls-13 {
        fill: #e3d1aa;
      }

      .cls-14, .cls-15 {
        fill: #d56c3c;
      }

      .cls-15 {
        stroke-width: .48px;
      }

      .cls-36 {
        fill: #c8e1c8;
      }

      .cls-16 {
        fill: #ddd8cd;
        stroke-width: .27px;
      }

      .cls-17 {
        fill: #7fc4ce;
      }

      .cls-18 {
        fill: #8f6f86;
        stroke-width: .31px;
      }

      .cls-19 {
        fill: #4986bb;
      }

      .cls-20 {
        stroke-width: 2.64px;
      }

      .cls-21 {
        fill: #c13f27;
      }

      .cls-22, .cls-23 {
        fill: #efddb9;
      }

      .cls-23 {
        stroke-width: .25px;
      }

      .cls-24, .cls-25 {
        fill: #386589;
      }

      .cls-25 {
        stroke-width: .25px;
      }

      .cls-26 {
        fill: #c68383;
      }

      .cls-27 {
        fill: #a39f46;
      }

      .cls-37 {
        fill: #f9eed3;
      }
    </style>
  </defs>
  <!-- Generator: Adobe Illustrator 28.7.0, SVG Export Plug-In . SVG Version: 1.2.0 Build 136)  -->
  <g>
    <g id="Layer_1">
      <g>
        <rect class="cls-34" x="182.11" y="322.46" width="153.76" height="139.97" rx="12" ry="12"/>
        <g id="svg">
          <path class="cls-8" d="M258.46,377.37c3.5.28,7.22,2.3,9.55,2.1s7.03-.55,9.85-2"/>
          <path class="cls-8" d="M223.46,384.94c-2.03,2.8-2.47,1.78-1.95,15.95"/>
          <path class="cls-12" d="M221.51,400.89c.95.08,1.65.65,2.18,1.83.25.55.5,1.18.4,2.07-.15,1.28-.88,1.32-.95.82-.07-.57.05-2.05-.47-2.12s-.47.55-.8,1.25c-.32.7.45,3-.55,2.88s-.65-2.1-.55-2.88c0,0-1.58,3.12-2.08,2.35-.5-.75.67-2.28.9-3.1,0,0-.95,1.82-1.55,1.53-.5-.28.17-1.35.67-2.43.67-1.55,1.72-2.27,2.8-2.2Z"/>
          <path class="cls-8" d="M234.91,419.12c-.08,4.07.4,12.22-2.98,22.33"/>
          <path class="cls-8" d="M246.56,417.22s.9,6.62.62,10.75c-.27,4.15-1.45,11.38-1.45,11.38"/>
          <path class="cls-24" d="M237.51,443.94c-.08.93-1.95,1.55-4.23,1.4s-4.05-1.05-3.98-1.97c.05-.7,1.12-1.8,2.6-1.95.5-.05,1.05.5,1.6.55,2.28.17,4.08,1.05,4,1.97Z"/>
          <path class="cls-24" d="M251.61,441.89c-.08.93-1.95,1.55-4.23,1.4s-4.05-1.05-3.98-1.97c.05-.65,1-1.8,2.35-2,.58-.07,1.2.55,1.88.6,2.25.17,4.02,1.05,3.98,1.97Z"/>
          <rect class="cls-3" x="233.41" y="375.07" width="14.1" height="11.88"/>
          <path class="cls-14" d="M227.61,408.64l1.4,9.65s1.5.82,5.9.82,6.82-1.53,6.82-1.53c0,0,.27-1.47.58-2.75.3-1.35,1.6-1.6,1.6-1.6,0,0-1.63.62-1.77,2.7-.02.43,0,.43.42.62,1.27.62,4.3.7,5.23.55,1.25-.22,2.4-1.1,2.4-1.1l-.92-5.6"/>
          <path class="cls-19" d="M229.06,376.12s-6.45,4.72-6.68,5.78.45,2.25,1.72,3.67,2.2,2.53,2.9,2.38,1.88-1.65,1.88-1.65l5.1-8.25-4.92-1.92Z"/>
          <path class="cls-19" d="M245.81,374.52s10.87-1.1,11.82-.67.4,1.65.8,3.53c.4,1.88-.3,3.12-.85,3.6s-2.62,0-2.62,0l-10-3,.85-3.45Z"/>
          <path class="cls-27" d="M233.39,376.99s-1.35,3.75-2.43,5.5c-1.07,1.72-2.07,3.8-2.07,3.8,0,0-.27,6.1-1.12,10.27s-2.6,10.03-2.6,10.03c0,0,4.18,5.5,15.3,5.03,11.13-.47,11.28-2.78,11.28-2.78,0,0-.2-19.28-.62-22.08s-1.1-7.92-2.47-10.85h-3.33s1.65,6.38-4.58,6.38-4.15-6.38-4.15-6.38l-3.2,1.08Z"/>
          <ellipse class="cls-3" cx="238.91" cy="360.14" rx="19.52" ry="18.23"/>
          <path class="cls-3" d="M220.51,361.29s-.42-.95-2.17-.8c-1.73.15-1.3,1.9-.83,2.55.48.65,1.33,2.23,2.3,2.1.98-.15,1.15-.58,1.15-.58"/>
          <ellipse class="cls-30" cx="236.31" cy="359.57" rx=".77" ry="1.3"/>
          <ellipse class="cls-30" cx="251.76" cy="356.97" rx=".78" ry="1.3"/>
          <path class="cls-10" d="M235.06,368.82c1.4,1.82,3.73,3.32,7.65,3.32,10.08,0,10.58-9.5,10.58-9.5"/>
          <path class="cls-10" d="M252.54,361.87s.2,1,1.1.9"/>
          <path class="cls-10" d="M234.14,369.19s1.23.17.92-1.23"/>
          <path class="cls-10" d="M245.29,373.27c.7.12,1.6-.65,1.6-.65"/>
          <path class="cls-1" d="M219.39,357.72s1.08-2,4.1-3.27,6.65-2.05,8.6-5.28c1.95-3.23,2.55-3.53,2.55-3.53,0,0,2.7,2.22,5.23,3.2s6.3,1.18,6.3,1.18c0,0-2.92-.7-3.75-2.65,0,0,4.25,2.38,8.95,2.18s4.25-1.23,5.7-1.05c0,0-.8-.27-.55-.77s2.03-.6,2.1-2.57l-4.65-.25s1.92-.93,2.03-3.03c0,0-4.3.75-8.8-.9s-7.68-1.88-11.4-.77-5.1,3.3-5.15,4.12c0,0,.15-2.78,1.25-3.62,0,0-2.6,1.8-3.57,3.3,0,0-2.38-1.22-4.32.4,0,0,2.1.22,2.18.7,0,0-2.78,1.7-5.15,5.25s-1.63,7.38-1.63,7.38Z"/>
          <g>
            <g>
              <path class="cls-9" d="M282.16,414.99h0c-1,0-1.83-.82-1.83-1.82v-43.68c0-1,.83-1.83,1.83-1.83h0c1,0,1.82.83,1.82,1.83v43.7c0,1-.82,1.8-1.82,1.8Z"/>
              <polygon class="cls-7" points="291.54 339.74 272.81 339.74 263.46 355.94 272.81 372.17 291.54 372.17 300.89 355.94 291.54 339.74"/>
            </g>
            <path class="cls-35" d="M273.14,352.54c-2.03-.98-4.45.65-3.72,2.97.33,1.08,1.22,1.58,2.25,1.85.38.1.95.15,1.2.52.35.55,0,1.1-.53,1.3-.5.2-2.22.2-2.45-.5-.3-.98-1.8-.55-1.53.42.7,2.33,5.08,2.4,6,.2.42-1.02.08-2.3-.85-2.95-.55-.38-1.17-.4-1.78-.62-1.45-.52-.78-2.52.6-1.85.93.45,1.73-.9.8-1.35h0Z"/>
            <path class="cls-35" d="M276.81,353.39c.12,2.18.38,4.32.72,6.47.17,1,1.7.58,1.53-.42-.35-2-.58-4.02-.67-6.05-.05-1-1.62-1-1.58,0h0Z"/>
            <path class="cls-35" d="M275.41,353.92c1.78.2,3.55.2,5.35,0,1-.1,1-1.68,0-1.57-1.78.2-3.55.2-5.35,0-1-.1-1,1.48,0,1.57h0Z"/>
            <path class="cls-35" d="M284.79,352.29c-1.88.25-2.22,2.5-2.47,4.07-.3,1.9.6,3.83,2.72,3.83,2.12.02,3.4-1.92,3.5-3.88.1-2.23-1.3-3.95-3.55-4.07-1.03-.05-1,1.52,0,1.57,3.15.18,2.1,5.65-.38,4.73-1.2-.45-.8-1.98-.53-2.92.12-.42.2-1,.43-1.4.2-.38.15-.35.68-.43,1.03-.13.6-1.63-.4-1.5h0Z"/>
            <path class="cls-35" d="M290.14,352.84c-.35,2.17-.47,4.35-.38,6.52.05,1,1.62,1.02,1.57,0-.1-2.05,0-4.1.32-6.12.15-.97-1.38-1.4-1.52-.4h0Z"/>
            <path class="cls-35" d="M291.41,353.67c.8-.15,1.8-.15,2.53.27.6.35.75,1.03-.07,1.22-.8.2-1.85-.08-2.65-.2-1-.15-1.43,1.38-.43,1.52,1.65.25,4.28.83,5.1-1.15.43-1.02-.1-2.05-.97-2.62-1.15-.77-2.62-.8-3.95-.57-.95.2-.53,1.73.45,1.53h0Z"/>
          </g>
          <path class="cls-12" d="M277.84,377.24c-.05,1.95,2.5,2.08,2.5,2.08v-3.5s1.9-1.22,1.9-1.62-1.9.05-1.9.05c0,0-2.45.97-2.5,3Z"/>
          <path class="cls-12" d="M282.76,375.39c-.47.53-.03.88-.07,1.33-.03.28-.28.58-.28.88,0,.25.32.5.35.72.1.53-.35.83.2,1.03.47.17,1.72-.05,1.97-.4.22-.35-.03-2.78-.18-3.17-.1-.38-1.62-.8-2-.38Z"/>
        </g>
        <rect class="cls-34" x="14.17" y="322.46" width="153.76" height="139.97" rx="12" ry="12"/>
        <g id="svg-2" data-name="svg">
          <path class="cls-8" d="M88.9,386.73c3.08,9.72,0,9.28,8.48,16.78"/>
          <path class="cls-8" d="M68.8,418.91c-.08,4.07.4,12.22-2.98,22.32"/>
          <path class="cls-8" d="M80.48,417.01s.9,6.62.62,10.75-1.45,11.38-1.45,11.38"/>
          <path class="cls-6" d="M71.4,443.73c-.08.93-1.95,1.55-4.23,1.4s-4.05-1.05-3.98-1.97c.05-.7,1.12-1.8,2.6-1.95.5-.05,1.05.5,1.6.55,2.3.17,4.07,1.05,4,1.97Z"/>
          <path class="cls-6" d="M85.5,441.68c-.08.93-1.95,1.55-4.23,1.4s-4.05-1.05-3.98-1.97c.05-.65,1-1.8,2.35-2,.58-.07,1.2.55,1.88.6,2.25.18,4.02,1.05,3.98,1.97Z"/>
          <rect class="cls-13" x="67.3" y="374.86" width="14.1" height="11.88"/>
          <path class="cls-17" d="M60.78,403.51l2.12,14.55s1.5.82,5.9.82,6.82-1.53,6.82-1.53c0,0,.27-1.47.58-2.75.3-1.35,1.6-1.6,1.6-1.6,0,0-1.62.62-1.77,2.7-.02.43,0,.43.42.62,1.27.62,4.3.7,5.23.55,1.25-.22,2.4-1.1,2.4-1.1l-.92-5.6"/>
          <path class="cls-21" d="M83.78,374.86s7.3,8.12,7.53,9.15c.22,1.03-1.1,1.3-2.38,2.72s-2.7,1.6-3.4,1.45c-.7-.15-1.55-2.12-1.55-2.12l-3.48-9.85,3.27-1.35Z"/>
          <path class="cls-11" d="M68.78,375.93s-1.65,3.62-2.88,5.25-2.4,3.6-2.4,3.6c0,0-.8,6.05-2,10.15s-3.45,9.75-3.45,9.75c0,0,3.7,5.82,14.82,6.32,11.13.5,11.48-1.78,11.48-1.78,0,0,1.47-19.2,1.28-22.03-.17-2.83-.4-7.97-1.53-11.03l-3.33-.28s1.1,6.5-5.1,5.97-3.58-6.7-3.58-6.7l-3.32.75Z"/>
          <path class="cls-8" d="M60.55,385.28c-3.73,7.85-4.93,6.05-4.93,21.4"/>
          <path class="cls-22" d="M55.03,406.56c.92-.22,1.75.12,2.62,1.07.4.45.82.97,1,1.85.25,1.25-.43,1.53-.65,1.07-.25-.53-.57-1.97-1.1-1.9s-.3.65-.4,1.43,1.33,2.72.35,2.9c-.97.18-1.25-1.8-1.4-2.57,0,0-.55,3.45-1.25,2.88s-.05-2.38-.1-3.22c0,0-.38,2.03-1,1.9-.55-.1-.25-1.32-.1-2.53.18-1.63.98-2.63,2.03-2.88Z"/>
          <path class="cls-22" d="M96.15,402.76c-.75.6-.95,1.47-.72,2.75.1.6.28,1.25.88,1.93.85.95,1.47.57,1.25.12-.25-.53-1.22-1.65-.85-2.03s.7.15,1.38.55,1.38,2.7,2.1,2.03c.72-.68-.7-2.07-1.2-2.68,0,0,3.1,1.62,3.05.72s-1.85-1.45-2.53-2.03c0,0,1.85.93,2.12.35.25-.53-.92-1-1.95-1.6-1.42-.83-2.7-.8-3.52-.12Z"/>
          <path class="cls-21" d="M63.45,375.03s-5.35,5.97-5.35,7.03.9,2.1,2.45,3.22,2.68,2.03,3.32,1.75,1.5-2.03,1.5-2.03l3.28-9.12c-1.5-.95-2.85-3.25-5.2-.85Z"/>
          <ellipse class="cls-23" cx="77.43" cy="360.46" rx="18.22" ry="19.52" transform="translate(-291.06 372.71) rotate(-79.78)"/>
          <path class="cls-22" d="M59.1,358.33s-.25-1-2-1.17c-1.72-.17-1.62,1.65-1.28,2.38s.93,2.45,1.9,2.48,1.25-.38,1.25-.38"/>
          <ellipse class="cls-30" cx="74.94" cy="359.43" rx="1.3" ry=".77" transform="translate(-292.09 369.42) rotate(-79.78)"/>
          <ellipse class="cls-30" cx="90.63" cy="359.63" rx="1.3" ry=".77" transform="translate(-279.38 385.03) rotate(-79.78)"/>
          <path class="cls-10" d="M88.98,366.86c0,.85.45,2.35,1.2,2.7"/>
          <path class="cls-10" d="M74.65,371.46s.73-1.73.65-2.7"/>
          <path class="cls-18" d="M92.88,344.03l-.28,1.6,1.72.3s1.5.8,1.35,2.1-.47,3.1-3.3,2.68-3.4.12-6.65-1.2-4.08-2.07-4.08-2.07c0,0,1.95,2.6,3.2,2.9s-6.6.75-9.2.27-4.65-.7-5.75-2.02c0,0-.38,1.75-.9,2.18-.55.43-4.65,1.57-6.32,2.55s-4.22,3.15-4.22,3.15c0,0,.35-4.55,2.48-7.98,2.12-3.43,5.57-4.1,5.57-4.1,0,0-.15-1.62-2.12-1.15,0,0,2-.78,3.25.15,0,0,1.48-1.9,3.9-3.22,0,0-1.38,1.95-1.45,3.32,0,0,3.95-4.68,9.68-3.6,5.73,1.08,6.15,2.05,8.45,2.7,2.28.63,4.67,1.45,4.67,1.45Z"/>
          <path class="cls-26" d="M75.2,370.06c4.95.82,11.33-.17,14.1-1.73,0,0-.83,6.35-6.83,6.7-4,.25-6.47-3.55-7.27-4.98Z"/>
          <path class="cls-35" d="M79.65,371.31c.25.1,1.77.42,3.58.08,1.78-.35,2.83-.6,2.83-.78v-.95c0-.08-3.6.77-6.5.83,0,.03-.13.73.1.83Z"/>
          <path class="cls-29" d="M85.53,374.21c-.08-.85-1.15-1.47-2.42-1.35-1.25.1-2.23.9-2.15,1.75.02.17.08.35.17.5,1.67,0,3.17-.25,4.4-.9Z"/>
          <path class="cls-10" d="M75.2,370.06c4.95.82,11.33-.17,14.1-1.73,0,0-.83,6.35-6.83,6.7-4,.25-6.47-3.55-7.27-4.98Z"/>
          <path class="cls-28" d="M100.2,361.51c-.03,4.77-1.65,8.48-4.55,11.35"/>
          <path class="cls-28" d="M102.03,363.93c.08,3.23-1.28,5.7-3.35,7.77"/>
          <path class="cls-28" d="M103.68,366.06c-.17,1.75-.78,3.02-1.65,4.02"/>
          <g>
            <path class="cls-20" d="M122,361.81c4.25,1.42,7.32,5.45,7.32,10.18,0,5.92-4.8,10.72-10.72,10.72s-10.72-4.8-10.72-10.72c0-3.7,1.85-6.95,4.7-8.88"/>
            <polygon class="cls-30" points="112.25 368.08 112.18 363.83 109.03 360.96 119.1 360.71 112.25 368.08"/>
          </g>
        </g>
        <rect class="cls-34" x="350.05" y="322.46" width="153.76" height="139.97" rx="12" ry="12"/>
        <g id="svg-3" data-name="svg">
          <path class="cls-8" d="M414.26,383.89c-3.23,2.58-4.5,3.55-16.05-.8"/>
          <path class="cls-8" d="M446.51,373.04c7.1-3.45,7.15-3.23,11.32-11.4"/>
          <path class="cls-12" d="M398.34,383.32c.32-.9.1-1.75-.75-2.75-.4-.45-.88-.95-1.72-1.2-1.22-.38-1.55.25-1.12.53.47.33,1.9.8,1.75,1.33s-.7.22-1.47.22-2.55-1.65-2.83-.7,1.65,1.45,2.4,1.7c0,0-3.5.15-3,.9s2.35.33,3.2.47c0,0-2.08.12-2.03.78.05.58,1.3.4,2.47.4,1.62-.03,2.73-.68,3.1-1.68Z"/>
          <path class="cls-12" d="M458.39,363.07c-.95-.12-1.57-.77-2.05-1.98-.22-.55-.4-1.2-.25-2.1.25-1.25.95-1.25,1-.75.05.58-.2,2.05.32,2.17.53.12.53-.5.9-1.17s-.22-3.02.75-2.83.47,2.12.35,2.92c0,0,1.8-3,2.22-2.2.43.8-.82,2.23-1.12,3.05,0,0,1.1-1.75,1.65-1.4.47.3-.28,1.33-.85,2.38-.75,1.4-1.85,2.05-2.92,1.9Z"/>
          <path class="cls-31" d="M435.64,424.74c-8.15,3.53-15.17,7.15-19.52,7.43s-7.48,1.63-7.48,3.78,1.75,4.18,2.65,5.03,3.15,3.5,6.8,2.72,6.5-2.35,11.25-4.1,27.2-12.55,27.98-17.13c.78-4.55-.7-4.62-2.57-6.05-1.9-1.43-4.62-1.22-5.88,1.1s-7.73,4.85-13.23,7.22Z"/>
          <ellipse class="cls-15" cx="423.86" cy="442.47" rx="2.95" ry="2.43" transform="translate(-187.19 487.76) rotate(-50.47)"/>
          <ellipse class="cls-15" cx="452.96" cy="427.77" rx="2.95" ry="2.43" transform="translate(-165.28 504.86) rotate(-50.47)"/>
          <path class="cls-8" d="M430.16,414.39c2.5,11.88.7,8.07-4.25,19.63"/>
          <path class="cls-8" d="M441.69,411.64s4.72,5.8,4.72,7.07-5.7,5.78-6.12,7.65"/>
          <rect class="cls-3" x="421.86" y="375.19" width="14.1" height="11.88"/>
          <path class="cls-14" d="M420.11,403.62l1.4,10.15s1.5.82,5.9.82,6.83-2.03,6.83-2.03c0,0,.28-1.47.58-2.75.3-1.35,1.6-1.6,1.6-1.6,0,0-1.62.62-1.78,2.7-.03.43,0,.43.42.62,1.28.62,4.3.7,5.22.55,1.25-.22,2.4-1.1,2.4-1.1l-.92-5.6"/>
          <path class="cls-19" d="M434.81,376.62s9.1-6.05,10.15-6.12c1.05-.08,1.12,1.28,2.35,2.75s1.2,2.92.95,3.58-2.33,1.22-2.33,1.22l-10.25,2.03-.88-3.45Z"/>
          <path class="cls-27" d="M421.84,377.12s-1.35,3.75-2.42,5.5c-1.08,1.72-2.08,3.8-2.08,3.8,0,0,1.25,4,.4,8.17s-.05,6.97-.05,6.97c0,0,4.18,5.5,15.3,5.03s11.27-2.78,11.27-2.78c0,0-3.15-7.17-4-11.95s-1.78-12.88-3.15-15.8h-3.33s1.65,6.38-4.58,6.38-4.15-6.38-4.15-6.38l-3.22,1.05Z"/>
          <path class="cls-19" d="M419.29,376.12s-7.15,3.62-7.52,4.6.08,2.28,1.1,3.9,1.75,2.85,2.48,2.83c.7-.03,2.12-1.33,2.12-1.33l6.38-9.05-4.55-.95Z"/>
          <ellipse class="cls-3" cx="427.36" cy="360.27" rx="19.52" ry="18.23"/>
          <path class="cls-3" d="M408.96,361.44s-.42-.95-2.17-.8-1.3,1.9-.83,2.55c.48.65,1.33,2.23,2.3,2.1.98-.15,1.15-.58,1.15-.58"/>
          <ellipse class="cls-30" cx="424.74" cy="359.69" rx=".78" ry="1.3"/>
          <ellipse class="cls-30" cx="440.21" cy="357.09" rx=".78" ry="1.3"/>
          <path class="cls-10" d="M423.51,368.94c1.4,1.82,3.72,3.32,7.65,3.32,10.08,0,10.58-9.5,10.58-9.5"/>
          <path class="cls-10" d="M440.99,362.02s.2,1,1.1.9"/>
          <path class="cls-10" d="M422.59,369.32s1.22.17.92-1.23"/>
          <path class="cls-10" d="M433.71,373.39c.7.12,1.6-.65,1.6-.65"/>
          <path class="cls-1" d="M407.81,357.87s1.08-2,4.1-3.27,6.65-2.05,8.6-5.27c1.95-3.22,2.55-3.53,2.55-3.53,0,0,2.7,2.22,5.22,3.2s6.3,1.18,6.3,1.18c0,0-2.92-.7-3.75-2.65,0,0,4.25,2.38,8.95,2.18,4.7-.18,4.25-1.23,5.7-1.05,0,0-.8-.27-.55-.77s2.03-.6,2.1-2.57l-4.65-.25s1.92-.93,2.03-3.03c0,0-4.3.75-8.8-.9s-7.67-1.88-11.38-.78c-3.73,1.1-5.1,3.3-5.15,4.12,0,0,.15-2.78,1.25-3.62,0,0-2.6,1.8-3.58,3.3,0,0-2.38-1.22-4.32.4,0,0,2.1.22,2.17.7,0,0-2.77,1.7-5.15,5.25s-1.65,7.38-1.65,7.38Z"/>
          <path class="cls-25" d="M445.41,430.22c-.28.9-2.28,1.07-4.45.43s-3.72-1.95-3.45-2.85c.2-.62,1.4-1.55,2.75-1.43.58.05,1.05.82,1.7,1,2.2.67,3.73,1.95,3.45,2.85Z"/>
          <path class="cls-24" d="M431.39,436.29c-.08.93-1.95,1.55-4.22,1.4-2.28-.15-4.05-1.05-3.97-1.97.05-.7,1.12-1.8,2.6-1.95.5-.05,1.05.5,1.6.55,2.28.17,4.05,1.05,4,1.97Z"/>
        </g>
        <g>
          <rect class="cls-36" x="14.17" y="168.31" width="153.76" height="139.97" rx="12" ry="12"/>
          <g id="svg-4" data-name="svg">
            <path class="cls-8" d="M78.49,232.86c1.95,2.9,3.45,9.12,5.4,8.7s5.58-8.53,6.8-9.85"/>
            <path class="cls-8" d="M46.97,230.86c-2.03,2.8-2.47,1.78-1.95,15.95"/>
            <path class="cls-12" d="M96.12,227.44c.03.45,1.25,1.33,1.83,1.8s1.35,1.58.88,1.97-1.65.08-2.03-.67-.55-.7-.55-.7c0,0,1,2.1.12,2.53-.9.42-1.9-.95-2.08-1.17s.67,1.62-.15,1.92-1.55-.08-1.62-.67-.78.72-1.5.45c-.72-.28-1.38-.5-1.28-1.8s.03-1.22,2.35-3.33c2.33-2.1,6.2-4.55,6.9-3.75s-2.87,3.42-2.87,3.42Z"/>
            <path class="cls-12" d="M44.99,246.81c.95.08,1.65.65,2.17,1.82.25.55.5,1.18.4,2.07-.15,1.28-.88,1.32-.95.82-.07-.57.05-2.05-.47-2.12-.55-.07-.47.55-.8,1.25-.32.7.45,3-.55,2.88s-.65-2.1-.55-2.88c0,0-1.58,3.12-2.08,2.35s.67-2.28.9-3.1c0,0-.95,1.82-1.55,1.53-.5-.28.17-1.35.67-2.43.68-1.57,1.73-2.27,2.8-2.2Z"/>
            <path class="cls-8" d="M103.59,232.79c-2.03,2.8-2.47,1.78-1.95,15.95"/>
            <path class="cls-22" d="M101.64,248.74c.95.07,1.65.65,2.18,1.82.25.55.5,1.18.4,2.07-.15,1.28-.88,1.32-.95.82-.08-.57.05-2.05-.47-2.12-.55-.07-.47.55-.8,1.25s.45,3-.55,2.88-.65-2.1-.55-2.88c0,0-1.58,3.12-2.08,2.35-.5-.75.67-2.28.9-3.1,0,0-.95,1.82-1.55,1.53-.5-.28.17-1.35.67-2.43.65-1.55,1.72-2.27,2.8-2.2Z"/>
            <path class="cls-8" d="M134.39,231.29c2.03,2.8,2.47,1.78,1.95,15.95"/>
            <path class="cls-22" d="M136.34,247.24c-.95.08-1.65.65-2.18,1.83-.25.55-.5,1.18-.4,2.07.15,1.28.88,1.32.95.82.07-.57-.05-2.05.47-2.12s.47.55.8,1.25c.32.7-.45,3,.55,2.88.97-.12.65-2.1.55-2.88,0,0,1.57,3.12,2.07,2.35.5-.75-.68-2.28-.9-3.1,0,0,.95,1.82,1.55,1.53.5-.28-.18-1.35-.68-2.43-.67-1.55-1.72-2.27-2.8-2.2Z"/>
            <path class="cls-8" d="M58.39,265.04c-.08,4.07.4,12.22-2.98,22.32"/>
            <path class="cls-8" d="M70.07,263.14s.9,6.62.62,10.75c-.27,4.15-1.45,11.38-1.45,11.38"/>
            <path class="cls-24" d="M60.99,289.86c-.08.93-1.95,1.55-4.23,1.4s-4.05-1.05-3.98-1.97c.05-.7,1.12-1.8,2.6-1.95.5-.05,1.05.5,1.6.55,2.3.17,4.07,1.05,4,1.97Z"/>
            <path class="cls-24" d="M75.09,287.81c-.08.93-1.95,1.55-4.23,1.4s-4.05-1.05-3.98-1.97c.05-.65,1-1.8,2.35-2,.58-.07,1.2.55,1.88.6,2.25.17,4.02,1.05,3.98,1.97Z"/>
            <rect class="cls-3" x="56.89" y="220.96" width="14.1" height="11.88"/>
            <path class="cls-14" d="M51.09,254.56l1.4,9.65s1.5.82,5.9.82,6.83-1.53,6.83-1.53c0,0,.27-1.47.58-2.75.3-1.35,1.6-1.6,1.6-1.6,0,0-1.62.62-1.77,2.7-.02.43,0,.43.42.62,1.27.62,4.3.7,5.23.55,1.25-.22,2.4-1.1,2.4-1.1l-.92-5.6"/>
            <path class="cls-19" d="M52.54,222.01s-6.45,4.72-6.68,5.78.45,2.25,1.73,3.67c1.27,1.42,2.2,2.53,2.9,2.38.7-.15,1.88-1.65,1.88-1.65l5.1-8.25-4.93-1.92Z"/>
            <path class="cls-19" d="M73.37,220.96s7.3,8.12,7.53,9.15c.22,1.03-1.1,1.3-2.38,2.72s-2.7,1.6-3.4,1.45c-.7-.15-1.55-2.12-1.55-2.12l-3.48-9.85,3.27-1.35Z"/>
            <path class="cls-27" d="M56.87,222.89s-1.35,3.75-2.43,5.5-2.07,3.8-2.07,3.8c0,0-.27,6.1-1.12,10.27s-2.6,10.03-2.6,10.03c0,0,4.18,5.5,15.3,5.03,11.12-.47,11.27-2.78,11.27-2.78,0,0-.2-19.28-.62-22.08s-1.1-7.92-2.47-10.85h-3.33s1.65,6.38-4.58,6.38-4.15-6.38-4.15-6.38l-3.2,1.08Z"/>
            <ellipse class="cls-3" cx="62.39" cy="206.06" rx="19.53" ry="18.23"/>
            <path class="cls-3" d="M44.02,207.21s-.43-.95-2.17-.8c-1.73.15-1.3,1.9-.83,2.55s1.33,2.23,2.3,2.1c.98-.15,1.15-.58,1.15-.58"/>
            <ellipse class="cls-30" cx="59.79" cy="205.46" rx=".77" ry="1.3"/>
            <ellipse class="cls-30" cx="75.24" cy="202.89" rx=".78" ry="1.3"/>
            <path class="cls-10" d="M58.57,214.74c1.4,1.83,3.73,3.33,7.65,3.33,10.07,0,10.57-9.5,10.57-9.5"/>
            <path class="cls-10" d="M76.04,207.79s.2,1,1.1.9"/>
            <path class="cls-10" d="M57.64,215.09s1.23.17.92-1.23"/>
            <path class="cls-10" d="M68.77,219.16c.7.12,1.6-.65,1.6-.65"/>
            <path class="cls-1" d="M42.87,203.64s1.08-2,4.1-3.27,6.65-2.05,8.6-5.27,2.55-3.53,2.55-3.53c0,0,2.7,2.22,5.23,3.2s6.3,1.18,6.3,1.18c0,0-2.92-.7-3.75-2.65,0,0,4.25,2.38,8.95,2.18s4.25-1.23,5.7-1.05c0,0-.8-.27-.55-.77s2.03-.6,2.1-2.57l-4.65-.25s1.92-.93,2.03-3.03c0,0-4.3.75-8.8-.9s-7.68-1.88-11.4-.78c-3.73,1.1-5.1,3.3-5.15,4.12,0,0,.15-2.78,1.25-3.62,0,0-2.6,1.8-3.57,3.3,0,0-2.38-1.22-4.32.4,0,0,2.1.22,2.18.7,0,0-2.78,1.7-5.15,5.25s-1.63,7.38-1.63,7.38Z"/>
            <path class="cls-8" d="M123.72,264.96c.07,4.07-.4,12.22,2.97,22.32"/>
            <path class="cls-8" d="M112.04,263.06s-.9,6.62-.62,10.75c.28,4.15,1.45,11.38,1.45,11.38"/>
            <path class="cls-6" d="M121.09,289.81c.07.93,1.95,1.55,4.22,1.4s4.05-1.05,3.97-1.97c-.05-.7-1.12-1.8-2.6-1.95-.5-.05-1.05.5-1.6.55-2.27.15-4.05,1.05-4,1.97Z"/>
            <path class="cls-6" d="M107.02,287.76c.07.93,1.95,1.55,4.22,1.4s4.05-1.05,3.97-1.97c-.05-.65-1-1.8-2.35-2-.57-.07-1.2.55-1.88.6-2.28.15-4.05,1.05-3.97,1.97Z"/>
            <rect class="cls-13" x="111.11" y="220.92" width="14.1" height="11.88"/>
            <path class="cls-17" d="M130.99,254.49l-1.4,9.65s-1.5.82-5.9.82-6.82-1.53-6.82-1.53c0,0-.28-1.47-.57-2.75-.3-1.35-1.6-1.6-1.6-1.6,0,0,1.62.62,1.78,2.7.03.43,0,.43-.43.62-1.28.62-4.3.7-5.22.55-1.25-.22-2.4-1.1-2.4-1.1l.93-5.6"/>
            <g>
              <path class="cls-21" d="M129.54,221.96s6.45,4.72,6.68,5.78c.22,1.03-.45,2.25-1.72,3.67s-2.2,2.53-2.9,2.38-1.88-1.65-1.88-1.65l-5.1-8.25,4.92-1.92Z"/>
              <path class="cls-21" d="M108.74,220.91s-7.3,8.12-7.53,9.15,1.1,1.3,2.38,2.72,2.7,1.6,3.4,1.45c.7-.15,1.55-2.12,1.55-2.12l3.47-9.85-3.28-1.35Z"/>
            </g>
            <path class="cls-11" d="M125.22,222.84s1.35,3.75,2.43,5.5c1.07,1.72,2.07,3.8,2.07,3.8,0,0,.28,6.1,1.12,10.28s2.6,10.03,2.6,10.03c0,0-4.18,5.5-15.3,5.03-11.12-.45-11.28-2.78-11.28-2.78,0,0,.2-19.28.62-22.08s1.1-7.92,2.47-10.85h3.32s-1.65,6.38,4.57,6.38,4.15-6.38,4.15-6.38l3.2,1.08Z"/>
            <ellipse class="cls-22" cx="119.69" cy="205.99" rx="19.53" ry="18.23"/>
            <path class="cls-22" d="M138.09,207.14s.43-.95,2.18-.8c1.72.15,1.3,1.9.82,2.55-.47.65-1.32,2.23-2.3,2.1-.97-.15-1.15-.58-1.15-.58"/>
            <ellipse class="cls-30" cx="122.32" cy="205.41" rx=".78" ry="1.3"/>
            <ellipse class="cls-30" cx="106.84" cy="202.81" rx=".78" ry="1.3"/>
            <path class="cls-10" d="M120.17,215.84c-1.05,1.25-2.82,2.25-5.78,2.25-7.6,0-7.8-6.45-7.8-6.45"/>
            <path class="cls-10" d="M106.97,211.11s-.15.67-.82.6"/>
            <path class="cls-10" d="M120.87,216.09s-.93.12-.7-.83"/>
            <path class="cls-18" d="M107.39,187.06v1.62h-1.75s-1.62.5-1.7,1.83c-.07,1.32-.07,3.15,2.75,3.23,2.85.07,3.32.73,6.75,0,3.45-.73,4.38-1.32,4.38-1.32,0,0-2.38,2.2-3.65,2.3-1.28.07,6.38,1.9,9,1.9s4.72.12,6.03-.98c0,0,.05,1.77.53,2.3s4.28,2.38,5.78,3.63c1.5,1.25,3.57,3.85,3.57,3.85,0,0,.47-4.55-1.03-8.27-1.47-3.73-4.75-5-4.75-5,0,0,.43-1.57,2.3-.78,0,0-1.82-1.1-3.22-.43,0,0-1.1-2.12-3.28-3.88,0,0,1.03,2.17.85,3.53,0,0-3.05-5.3-8.88-5.28-5.82.05-6.43.92-8.8,1.15-2.38.22-4.88.6-4.88.6Z"/>
          </g>
          <rect class="cls-36" x="182.11" y="168.31" width="153.76" height="139.97" rx="12" ry="12"/>
          <g id="svg-5" data-name="svg">
            <path class="cls-8" d="M259.01,264.99c-.08,4.07.4,12.22-2.98,22.32"/>
            <path class="cls-8" d="M270.68,263.09s.9,6.62.62,10.75c-.28,4.15-1.45,11.38-1.45,11.38"/>
            <path class="cls-24" d="M261.63,289.82c-.08.93-1.95,1.55-4.23,1.4s-4.05-1.05-3.98-1.97c.05-.7,1.12-1.8,2.6-1.95.5-.05,1.05.5,1.6.55,2.27.17,4.05,1.05,4,1.97Z"/>
            <path class="cls-24" d="M275.71,287.77c-.08.93-1.95,1.55-4.22,1.4-2.28-.15-4.05-1.05-3.97-1.97.05-.65,1-1.8,2.35-2,.58-.07,1.2.55,1.88.6,2.27.17,4.05,1.05,3.97,1.97Z"/>
            <rect class="cls-3" x="257.53" y="220.92" width="14.1" height="11.88"/>
            <path class="cls-14" d="M251.71,254.52l1.4,9.65s1.5.82,5.9.82,6.83-1.53,6.83-1.53c0,0,.28-1.47.58-2.75.3-1.35,1.6-1.6,1.6-1.6,0,0-1.62.62-1.78,2.7-.03.43,0,.43.42.62,1.28.62,4.3.7,5.22.55,1.25-.22,2.4-1.1,2.4-1.1l-.92-5.6"/>
            <path class="cls-19" d="M253.18,221.97s-6.45,4.72-6.68,5.78.45,2.25,1.73,3.67,2.2,2.53,2.9,2.38,1.88-1.65,1.88-1.65l5.1-8.25-4.93-1.92Z"/>
            <path class="cls-19" d="M273.98,220.92s7.3,8.12,7.53,9.15c.22,1.03-1.1,1.3-2.38,2.72s-2.7,1.6-3.4,1.45c-.7-.15-1.55-2.12-1.55-2.12l-3.47-9.85,3.27-1.35Z"/>
            <path class="cls-27" d="M257.51,222.84s-1.35,3.75-2.42,5.5-2.08,3.8-2.08,3.8c0,0-.27,6.1-1.12,10.28s-2.6,10.03-2.6,10.03c0,0,4.18,5.5,15.3,5.03s11.27-2.78,11.27-2.78c0,0-.2-19.28-.62-22.08s-1.1-7.92-2.47-10.85h-3.33s1.65,6.38-4.58,6.38-4.1-6.35-4.1-6.35l-3.25,1.05Z"/>
            <ellipse class="cls-3" cx="263.03" cy="206.02" rx="19.52" ry="18.23"/>
            <path class="cls-3" d="M244.63,207.17s-.43-.95-2.18-.8c-1.72.15-1.3,1.9-.82,2.55s1.32,2.23,2.3,2.1c.98-.15,1.15-.58,1.15-.58"/>
            <ellipse class="cls-30" cx="260.41" cy="205.42" rx=".77" ry="1.3"/>
            <ellipse class="cls-30" cx="275.88" cy="202.84" rx=".78" ry="1.3"/>
            <path class="cls-10" d="M259.18,214.69c1.4,1.83,3.73,3.33,7.65,3.33,10.08,0,10.58-9.5,10.58-9.5"/>
            <path class="cls-10" d="M276.66,207.74s.2,1,1.1.9"/>
            <path class="cls-10" d="M258.26,215.04s1.23.17.92-1.23"/>
            <path class="cls-10" d="M269.41,219.12c.7.12,1.6-.65,1.6-.65"/>
            <path class="cls-1" d="M243.51,203.59s1.07-2,4.1-3.27c3.02-1.27,6.65-2.05,8.6-5.28s2.55-3.53,2.55-3.53c0,0,2.7,2.22,5.23,3.2s6.3,1.18,6.3,1.18c0,0-2.92-.7-3.75-2.65,0,0,4.25,2.38,8.95,2.18s4.25-1.23,5.7-1.05c0,0-.8-.27-.55-.77s2.03-.6,2.1-2.57l-4.65-.25s1.92-.93,2.03-3.03c0,0-4.3.75-8.8-.9s-7.73-1.92-11.45-.83-5.05,3.35-5.13,4.17c0,0,.15-2.78,1.25-3.62,0,0-2.6,1.8-3.58,3.3,0,0-2.38-1.22-4.32.4,0,0,2.1.22,2.18.7,0,0-2.77,1.7-5.15,5.25s-1.6,7.38-1.6,7.38Z"/>
            <path class="cls-8" d="M247.16,230.04c-2.38,1.62-7.68,7.05-9.62,6.62s-3.95-8.88-3.72-9.52"/>
            <path class="cls-8" d="M279.13,232.82c2.03,2.8,2.47,1.78,1.95,15.95"/>
            <path class="cls-12" d="M239.63,221.97c.03.45,1.25,1.33,1.82,1.8s1.35,1.58.88,1.97c-.5.4-1.65.08-2.03-.67s-.55-.7-.55-.7c0,0,1,2.1.12,2.53-.9.42-1.9-.95-2.08-1.17s.68,1.62-.15,1.92c-.82.3-1.55-.08-1.62-.67s-.78.72-1.5.45-1.38-.5-1.27-1.8.02-1.22,2.35-3.33c2.33-2.1,6.2-4.55,6.9-3.75.65.8-2.87,3.42-2.87,3.42Z"/>
            <path class="cls-12" d="M281.08,248.77c-.95.07-1.65.65-2.17,1.82-.25.55-.5,1.18-.4,2.07.15,1.28.88,1.32.95.82.08-.57-.05-2.05.47-2.12.55-.07.47.55.8,1.25s-.45,3,.55,2.88.65-2.1.55-2.88c0,0,1.58,3.12,2.08,2.35.5-.75-.67-2.28-.9-3.1,0,0,.95,1.82,1.55,1.53.5-.28-.17-1.35-.67-2.43-.67-1.57-1.72-2.27-2.8-2.2Z"/>
          </g>
          <g>
            <rect class="cls-32" x="350.05" y="168.31" width="153.76" height="139.97" rx="12" ry="12"/>
            <g id="svg-6" data-name="svg">
              <path class="cls-2" d="M419.01,272.73c.62-.97,2.53,1.9,1.35,5.05-.92,2.47-5.5,7.38-5.2,4.95.3-2.42-.3-3.42,3.85-10Z"/>
              <path class="cls-2" d="M417.19,276.66c.58-.72,2.53,1.78,1.35,4.93-.92,2.47-5.5,7.38-5.2,4.95.33-2.45-1-3.8,3.85-9.88Z"/>
              <path class="cls-8" d="M449.59,232.06c-3.07,9.72,0,7.17-11.85,13"/>
              <path class="cls-8" d="M469.71,264.23c.07,4.07-.4,12.22,2.97,22.32"/>
              <path class="cls-8" d="M458.04,262.33s-.9,6.62-.62,10.75,1.45,11.38,1.45,11.38"/>
              <path class="cls-6" d="M467.09,289.08c.07.93,1.95,1.55,4.22,1.4s4.05-1.05,3.97-1.97c-.05-.7-1.12-1.8-2.6-1.95-.5-.05-1.05.5-1.6.55-2.27.15-4.05,1.05-4,1.97Z"/>
              <path class="cls-6" d="M453.01,287.03c.07.93,1.95,1.55,4.22,1.4s4.05-1.05,3.97-1.97c-.05-.65-1-1.8-2.35-2-.57-.07-1.2.55-1.88.6-2.28.17-4.05,1.05-3.97,1.97Z"/>
              <rect class="cls-13" x="457.08" y="220.2" width="14.1" height="11.88"/>
              <path class="cls-17" d="M477.71,248.86l-2.12,14.55s-1.5.82-5.9.82-6.82-1.53-6.82-1.53c0,0-.28-1.47-.57-2.75-.3-1.35-1.6-1.6-1.6-1.6,0,0,1.62.62,1.78,2.7.03.43,0,.43-.43.62-1.28.62-4.3.7-5.22.55-1.25-.22-2.4-1.1-2.4-1.1l.93-5.6"/>
              <path class="cls-21" d="M454.74,220.18s-7.3,8.12-7.53,9.15,1.1,1.3,2.38,2.72,2.7,1.6,3.4,1.45c.7-.15,1.55-2.12,1.55-2.12l3.47-9.85-3.28-1.35Z"/>
              <path class="cls-11" d="M469.74,221.26s1.65,3.62,2.88,5.25,2.4,3.6,2.4,3.6c0,0,.8,6.05,2,10.15,1.2,4.1,3.45,9.75,3.45,9.75,0,0-3.7,5.82-14.82,6.32s-11.47-1.78-11.47-1.78c0,0-1.47-19.2-1.28-22.03.18-2.83.4-7.97,1.53-11.03l3.32-.28s-1.1,6.5,5.1,5.97,3.57-6.7,3.57-6.7l3.33.75Z"/>
              <path class="cls-8" d="M477.96,230.63c2.45,11.92,4.28,8.33-14.18,16.62"/>
              <path class="cls-22" d="M463.79,247.26c-.35-.9-1.1-1.38-2.38-1.55-.6-.08-1.28-.12-2.1.25-1.15.53-1,1.22-.5,1.15.57-.1,1.95-.67,2.18-.17s-.38.62-.95,1.15-3,.47-2.57,1.38,2.2-.03,2.93-.32c0,0-2.5,2.45-1.62,2.68.88.25,1.97-1.32,2.7-1.78,0,0-1.45,1.47-.97,1.93.4.4,1.22-.57,2.12-1.35,1.2-1.13,1.55-2.35,1.17-3.35Z"/>
              <path class="cls-21" d="M475.04,220.38s5.35,5.97,5.35,7.03-.9,2.1-2.45,3.22-2.68,2.03-3.32,1.75c-.65-.28-1.5-2.03-1.5-2.03l-3.28-9.12c1.52-.97,2.85-3.27,5.2-.85Z"/>
              <g>
                <ellipse class="cls-23" cx="461.08" cy="205.81" rx="19.52" ry="18.22" transform="translate(-29.2 85.06) rotate(-10.22)"/>
                <path class="cls-22" d="M479.39,203.68s.25-1,2-1.17c1.72-.17,1.62,1.65,1.28,2.38s-.93,2.45-1.9,2.48-1.25-.38-1.25-.38"/>
                <ellipse class="cls-30" cx="463.56" cy="204.78" rx=".77" ry="1.3" transform="translate(-28.98 85.49) rotate(-10.22)"/>
                <ellipse class="cls-30" cx="447.86" cy="204.96" rx=".77" ry="1.3" transform="translate(-29.26 82.7) rotate(-10.22)"/>
                <path class="cls-10" d="M463.31,215.41c-.82,1.4-2.38,2.72-5.28,3.25-7.5,1.35-8.82-4.95-8.82-4.95"/>
                <path class="cls-10" d="M449.49,213.11s-.03.7-.7.75"/>
                <path class="cls-10" d="M464.04,215.53s-.9.27-.82-.7"/>
                <path class="cls-18" d="M445.61,189.36l.28,1.6-1.72.3s-1.5.8-1.35,2.1c.15,1.3.47,3.1,3.3,2.68,2.82-.43,3.4.12,6.65-1.2s4.07-2.07,4.07-2.07c0,0-1.95,2.6-3.2,2.9-1.25.3,6.6.75,9.2.27s4.65-.7,5.75-2.02c0,0,.38,1.75.9,2.18.55.43,4.65,1.57,6.32,2.55s4.2,3.15,4.2,3.15c0,0-.35-4.55-2.47-7.98s-5.57-4.1-5.57-4.1c0,0,.15-1.62,2.12-1.15,0,0-2-.78-3.25.15,0,0-1.47-1.9-3.9-3.22,0,0,1.38,1.95,1.45,3.32,0,0-3.95-4.68-9.68-3.6-5.72,1.08-6.15,2.05-8.45,2.7-2.3.65-4.65,1.45-4.65,1.45Z"/>
              </g>
              <path class="cls-8" d="M417.19,274.46s9.42-2.28,10.42,0-4.95,11.8-4.95,11.8"/>
              <path class="cls-8" d="M413.86,279.66s6.72-2.57,10.95-1.18c4.22,1.43,9.1,9.55,9.1,9.55"/>
              <path class="cls-8" d="M412.61,250.48c7.15,3.93,6.97,7.35,19.83-1.68"/>
              <path class="cls-14" d="M416.99,276.51s3.78-3.9,2.3-4c-1.45-.1-5.3,1.3-7.65,1.15s-1.47,2.28-1.47,2.28l-.15.43,3.72,1.35,3.25-1.2Z"/>
              <path class="cls-14" d="M389.84,279.61s-.92,4.15,2.42,6.53,6.23,2.22,11.75,1.72c5.53-.5,9.3-.72,9.3-.72,0,0,.03-4,1.6-6.4,1.58-2.4,3-3.55,2.88-4.05-.15-.5-2.08.28-6.2,0s-12.35-2.2-12.35-2.2l-9.4,5.12Z"/>
              <rect class="cls-4" x="389.51" y="243.93" width="14.1" height="11.88" transform="translate(-42.78 86.55) rotate(-11.82)"/>
              <path class="cls-19" d="M403.14,243.21s10.15,4.05,10.8,4.88c.65.83-.4,1.65-.92,3.5-.53,1.85-1.72,2.62-2.42,2.82-.7.18-2.33-1.22-2.33-1.22l-7.5-7.3,2.38-2.68Z"/>
              <path class="cls-27" d="M388.81,247.41l-2.55.53s1.02,15.53,1.08,19.8c.02,4.28-.5,10.35-.5,10.35,0,0,5.23,4.53,16.02,1.78,10.8-2.72,10.47-5.03,10.47-5.03,0,0-4.12-18.83-5.12-21.47-.97-2.65-2.7-7.53-4.62-10.1l-3.25.67s2.92,5.9-3.17,7.17c-6.1,1.28-5.35-5.4-5.35-5.4l-3,1.7Z"/>
              <ellipse class="cls-5" cx="392.69" cy="229.79" rx="19.53" ry="18.23" transform="translate(-49.69 336.12) rotate(-43.85)"/>
              <path class="cls-3" d="M380.24,243.36s-.95-.38-2.1.92c-1.15,1.3.4,2.28,1.18,2.42.8.15,2.53.7,3.12-.1.6-.78.43-1.22.43-1.22"/>
              <ellipse class="cls-30" cx="390.42" cy="231.18" rx=".78" ry="1.3" transform="translate(-51.29 334.93) rotate(-43.85)"/>
              <ellipse class="cls-30" cx="399.76" cy="218.59" rx=".78" ry="1.3" transform="translate(-39.96 337.89) rotate(-43.85)"/>
              <path class="cls-1" d="M376.94,241.58s-.62-2.17.68-5.2,3.38-6.1,2.55-9.78c-.82-3.67-.6-4.3-.6-4.3,0,0,3.5-.25,6-1.3,2.5-1.05,5.35-3.53,5.35-3.53,0,0-2.6,1.53-4.52.67,0,0,4.7-1.25,7.98-4.62s2.23-3.83,3.4-4.7c0,0-.77.35-.92-.17s1.02-1.83-.25-3.3l-3.53,3.03s.75-2-.65-3.58c0,0-2.58,3.52-6.98,5.45s-6.87,3.93-8.8,7.3c-1.93,3.38-1.4,5.9-.88,6.55,0,0-1.82-2.1-1.62-3.47,0,0-.62,3.1-.3,4.85,0,0-2.55.78-2.85,3.3,0,0,1.67-1.3,2.05-1,0,0-.83,3.15-.08,7.35s3.98,6.45,3.98,6.45Z"/>
              <path class="cls-19" d="M383.04,251.36c-1.23,3.8-2.57,7.57-2.18,8.55.4.97,1.65,1.57,3.53,2.03,1.88.45,3.25.82,3.75.3.5-.53.6-2.45.6-2.45,0,0,.12-6.68-.55-9.68-.73-3.03-3.95-2.58-5.15,1.25Z"/>
              <path class="cls-8" d="M382.71,261.41c-1,2.7-4.72,23.2-4.72,23.2"/>
              <path class="cls-24" d="M426.89,291.11c-.47.8-2.45.47-4.38-.7-1.92-1.18-3.12-2.78-2.62-3.57.38-.6,1.83-1.07,3.2-.53.47.18.7.93,1.17,1.22,1.95,1.18,3.12,2.78,2.62,3.57Z"/>
              <path class="cls-24" d="M439.89,286.33c.53.78-.6,2.43-2.47,3.7s-3.82,1.68-4.35.9c-.38-.55-.33-2.05.62-3.03.4-.4,1.28-.3,1.85-.68,1.9-1.25,3.85-1.65,4.35-.9Z"/>
              <path class="cls-12" d="M377.96,284.61c1.32-.35,2.72,1.53,2.72,2s-1.45.38-2.35.4c0,0-1.18,2.03-1.65,2.25-.43.2-2.55.38-2.55-.18s.75-3.62,3.83-4.47Z"/>
              <g>
                <path class="cls-12" d="M432.89,249.63c.15.15.45.3.85.43,1.47.45,4.2.53,4.6-.22.5-.97.32-2.9-.6-3.5-.93-.6-4.1.58-4.83,1.05-.7.47-.67,1.5-.02,2.25Z"/>
                <path class="cls-22" d="M437.56,249.13c-.43-.4-2.2-.5-2.68-.3-.47.2-.38.8-.7.97-.32.18-.45.28-.45.28,0,0,.05.57.88.75.82.2,2.57.1,2.88-.25.27-.35.5-1.05.07-1.45Z"/>
                <path class="cls-22" d="M435.56,246.66c.03-.38.22-.22.62-.4.65-.1,1.22-.12,1.55.1.3.2.5.53.65.9.07-.7.1-1.33.05-1.62-.1-.85-1.05-1.28-2-1.03-.03,0-.05.03-.07.03h-.03c-1.2.55-1.9,1.22-2,1.53-.15.5.07,1.47.3,1.55.22.08.78.28.88-.25.1-.4.02-.33.05-.8Z"/>
              </g>
              <path class="cls-10" d="M401.96,235.98c3.45-.5,5.53-2.95,6-6.85"/>
            </g>
          </g>
        </g>
        <g>
          <g>
            <rect class="cls-33" x="350.05" y="14.17" width="153.76" height="139.97" rx="12" ry="12"/>
            <g id="svg-7" data-name="svg">
              <path class="cls-16" d="M426.96,57.62c11.67-1.05,18.62-7.93,17-9.9s-13.3-14.57-18.53-14.3-18.12,16.5-15.33,18.5,5.18,6.72,16.85,5.7Z"/>
              <path class="cls-16" d="M428.31,134.85c19.2-.7,25.83-11.8,28.67-16.7,2.85-4.88-21.25-24.95-30.08-24.47-8.83.47-35.8,25.17-29.25,30.15,6.55,5,10.9,11.75,30.65,11.03Z"/>
              <polygon class="cls-30" points="426.93 86.15 434.51 78.87 429.48 79.32 431.43 67.17 426.93 67.15 422.43 67.17 424.38 79.32 419.38 78.87 426.93 86.15"/>
            </g>
          </g>
          <rect class="cls-37" x="14.17" y="14.17" width="153.76" height="139.97" rx="12" ry="12"/>
          <g id="svg-8" data-name="svg">
            <g>
              <path class="cls-19" d="M53.19,125.53h0c-4.03,0-7.3-3.28-7.3-7.3v-40.47c0-4.03,3.28-7.3,7.3-7.3h0c4.03,0,7.3,3.28,7.3,7.3v40.48c0,4.02-3.27,7.3-7.3,7.3Z"/>
              <path class="cls-3" d="M88.27,128.66c-18.48,0-27.77-10.2-27.77-10.2v-41.75s11.45-12.3,18.2-12.78c6.78-.47,29.78,12,29.78,12v47.93l2.2,4.82-22.4-.03Z"/>
              <path class="cls-3" d="M79.04,97.83s3,1.5,13.42-4.25,7.65-14.53,8.58-17.28,3.35-5.72,6.02-8.88c2.7-3.15,5.25-7.25,5.25-15.05s-6.97-12.88-10.5-12.88-4.5,2.2-4.38,5.2c.12,3-.17,6.97-1,9.02s-4.25,6.3-8.15,7.95-11.42,1.38-16.9,5.62"/>
              <path class="cls-3" d="M130.22,121.46v.25c0,3.93-3.18,7.1-7.1,7.1h-13.07c-3.92,0-7.1-3.18-7.1-7.1v-.25c0-3.93,3.17-7.1,7.1-7.1h13.07c3.93,0,7.1,3.17,7.1,7.1Z"/>
              <path class="cls-3" d="M134.32,107.01v.25c0,3.93-3.18,7.1-7.1,7.1h-16.47c-3.93,0-7.1-3.18-7.1-7.1v-.25c0-3.93,3.18-7.1,7.1-7.1h16.47c3.93,0,7.1,3.18,7.1,7.1Z"/>
              <path class="cls-3" d="M136.22,92.53v.25c0,3.93-3.18,7.1-7.1,7.1h-19.07c-3.92,0-7.1-3.18-7.1-7.1v-.25c0-3.92,3.17-7.1,7.1-7.1h19.07c3.93,0,7.1,3.17,7.1,7.1Z"/>
              <path class="cls-3" d="M136.22,78.06v.25c0,3.92-3.18,7.1-7.1,7.1h-21c-3.92,0-7.1-3.17-7.1-7.1v-.25c0-3.92,3.17-7.1,7.1-7.1h21c3.93,0,7.1,3.2,7.1,7.1Z"/>
            </g>
          </g>
          <rect class="cls-37" x="182.11" y="14.17" width="153.76" height="139.97" rx="12" ry="12"/>
          <g id="svg-9" data-name="svg">
            <g>
              <path class="cls-19" d="M221.13,42.79h0c-4.02,0-7.3,3.25-7.3,7.27v40.48c0,4.03,3.28,7.3,7.3,7.3h0c4.02,0,7.3-3.28,7.3-7.3v-40.48c0-4.02-3.27-7.27-7.3-7.27Z"/>
              <path class="cls-3" d="M256.2,39.67c-18.45,0-27.78,10.2-27.78,10.2v41.75s11.45,12.3,18.2,12.77,29.77-12,29.77-12v-47.9l2.2-4.82h-22.4Z"/>
              <path class="cls-3" d="M246.98,70.49s3-1.5,13.42,4.25,7.65,14.52,8.58,17.27,3.35,5.72,6.02,8.88c2.7,3.15,5.25,7.25,5.25,15.05s-6.97,12.88-10.5,12.88-4.5-2.2-4.38-5.2-.17-6.97-1-9.03-4.25-6.3-8.15-7.95-11.42-1.38-16.9-5.62"/>
              <path class="cls-3" d="M298.15,46.84v-.25c0-3.93-3.18-7.1-7.1-7.1h-13.07c-3.92,0-7.1,3.18-7.1,7.1v.25c0,3.92,3.17,7.1,7.1,7.1h13.07c3.93.02,7.1-3.17,7.1-7.1Z"/>
              <path class="cls-3" d="M302.25,61.32v-.25c0-3.92-3.18-7.1-7.1-7.1h-16.47c-3.93,0-7.1,3.17-7.1,7.1v.25c0,3.93,3.18,7.1,7.1,7.1h16.47c3.93,0,7.1-3.17,7.1-7.1Z"/>
              <path class="cls-3" d="M304.15,75.79v-.25c0-3.92-3.18-7.1-7.1-7.1h-19.07c-3.92,0-7.1,3.17-7.1,7.1v.25c0,3.92,3.17,7.1,7.1,7.1h19.07c3.93,0,7.1-3.17,7.1-7.1Z"/>
              <path class="cls-3" d="M304.15,90.24v-.25c0-3.92-3.18-7.1-7.1-7.1h-21c-3.92,0-7.1,3.17-7.1,7.1v.25c0,3.92,3.17,7.1,7.1,7.1h21c3.93,0,7.1-3.18,7.1-7.1Z"/>
            </g>
          </g>
        </g>
      </g>
    </g>
  </g>
</svg>