<?xml version="1.0" encoding="utf-8"?>
<!-- Generator: Adobe Illustrator 27.9.4, SVG Export Plug-In . SVG Version: 9.03 Build 54784)  -->
<svg version="1.1" id="Layer_1" xmlns="http://www.w3.org/2000/svg" xmlns:xlink="http://www.w3.org/1999/xlink" x="0px" y="0px"
	 viewBox="0 0 71.7 47.2" style="enable-background:new 0 0 71.7 47.2;" xml:space="preserve">
<g>
	<circle style="fill:#231F20;" cx="35.9" cy="-476.5" r="32.1"/>
	<circle style="fill:#929497;" cx="46.4" cy="-490" r="11.8"/>
	<circle style="fill:#BBBDBF;" cx="37.4" cy="-461.9" r="14.6"/>
	<circle style="fill:#58595B;" cx="21.8" cy="-488.7" r="9.4"/>
	<circle style="fill:#808184;" cx="13.8" cy="-469.7" r="6.8"/>
	<circle style="fill:#E6E7E8;" cx="57.5" cy="-471.6" r="5.5"/>
</g>
<g>
	<g>
		<path d="M61-399.9v31.9c0,3.7-3,6.6-6.6,6.6h-37c-3.7,0-6.6-3-6.6-6.6v-31.9H61 M65-403.9H6.7v35.9c0,5.9,4.8,10.6,10.6,10.6h37
			c5.9,0,10.6-4.8,10.6-10.6V-403.9L65-403.9z"/>
	</g>
	<path d="M6.7-403.9v-1.1c0-5.9,4.8-10.6,10.6-10.6h37c5.9,0,10.6,4.8,10.6,10.6v1.1H6.7z"/>
	<line style="fill:none;stroke:#000000;stroke-width:3;stroke-miterlimit:10;" x1="65" y1="-403.9" x2="6.7" y2="-403.9"/>
	<circle style="fill-rule:evenodd;clip-rule:evenodd;fill:#404041;" cx="17.4" cy="-368" r="4"/>
	<circle style="fill-rule:evenodd;clip-rule:evenodd;fill:#404041;" cx="29.7" cy="-368" r="4"/>
	<circle style="fill-rule:evenodd;clip-rule:evenodd;fill:#404041;" cx="42.1" cy="-368" r="4"/>
	<circle style="fill-rule:evenodd;clip-rule:evenodd;fill:#404041;" cx="17.4" cy="-380.3" r="4"/>
	<circle style="fill-rule:evenodd;clip-rule:evenodd;fill:#404041;" cx="29.7" cy="-380.3" r="4"/>
	<circle style="fill-rule:evenodd;clip-rule:evenodd;fill:#404041;" cx="42.1" cy="-380.3" r="4"/>
	<circle style="fill-rule:evenodd;clip-rule:evenodd;fill:#404041;" cx="54.4" cy="-380.3" r="4"/>
	<circle style="fill-rule:evenodd;clip-rule:evenodd;fill:#404041;" cx="29.7" cy="-392.7" r="4"/>
	<circle style="fill-rule:evenodd;clip-rule:evenodd;fill:#404041;" cx="42.1" cy="-392.7" r="4"/>
	<circle style="fill-rule:evenodd;clip-rule:evenodd;fill:#404041;" cx="54.4" cy="-392.7" r="4"/>
</g>
<g>
	<g>
		<path d="M61-233.7v31.9c0,3.7-3,6.6-6.6,6.6h-37c-3.7,0-6.6-3-6.6-6.6v-31.9H61 M65-237.7H6.7v35.9c0,5.9,4.8,10.6,10.6,10.6h37
			c5.9,0,10.6-4.8,10.6-10.6V-237.7L65-237.7z"/>
	</g>
	<path d="M6.7-237.7v-1.1c0-5.9,4.8-10.6,10.6-10.6h37c5.9,0,10.6,4.8,10.6,10.6v1.1H6.7z"/>
	<line style="fill:none;stroke:#000000;stroke-miterlimit:10;" x1="65" y1="-237.7" x2="6.7" y2="-237.7"/>
	<text transform="matrix(1 0 0 1 34.7288 -206.4227)" style="font-family:'SupremeTrial-Black'; font-size:18px;">7</text>
	<text transform="matrix(0.583 0 0 0.583 46.4105 -212.4169)" style="font-family:'SupremeTrial-Black'; font-size:18px;">th</text>
	<g>
		<g>
			<path style="fill:#808184;" d="M24.1-219.4c3.3,0,6,2.7,6,6c0,3.3-2.7,6-6,6s-6-2.7-6-6C18.1-216.7,20.8-219.4,24.1-219.4
				 M24.1-222.4c-5,0-9,4-9,9s4,9,9,9s9-4,9-9S29.1-222.4,24.1-222.4L24.1-222.4z"/>
		</g>
	</g>
	<polyline style="fill-rule:evenodd;clip-rule:evenodd;fill:none;stroke:#000000;stroke-width:3;stroke-miterlimit:10;" points="
		20.3,-216.6 24.9,-211.5 33.1,-224.2 	"/>
</g>
<g>
	<circle style="fill-rule:evenodd;clip-rule:evenodd;fill:#231F20;" cx="17.3" cy="-320.6" r="7.9"/>
	<path style="fill-rule:evenodd;clip-rule:evenodd;fill:#231F20;" d="M17.3-308.7c-8.8,0-15.9,9.3-15.9,20.7c0,1.9,0.2,3.7,0.6,5.4
		c4.7,2.8,9.8,4.3,15.3,4.3s10.6-1.6,15.3-4.3c0.4-1.7,0.6-3.5,0.6-5.4C33.1-299.4,26-308.7,17.3-308.7z"/>
	<circle style="fill-rule:evenodd;clip-rule:evenodd;fill:#231F20;" cx="54.5" cy="-320.6" r="7.9"/>
	<path style="fill-rule:evenodd;clip-rule:evenodd;fill:#231F20;" d="M54.5-308.7c-8.8,0-15.9,9.3-15.9,20.7c0,1.9,0.2,3.7,0.6,5.4
		c4.7,2.8,9.8,4.3,15.3,4.3s10.6-1.6,15.3-4.3c0.4-1.7,0.6-3.5,0.6-5.4C70.3-299.4,63.2-308.7,54.5-308.7z"/>
</g>
<g>
	<polygon style="fill:#BBBDBF;" points="61.9,-96.4 61.9,-146.5 45.6,-121.6 38.5,-122.8 28.9,-108.6 21.8,-111.4 7.6,-101.6 
		6.8,-96.4 	"/>
	<g>
		<g>
			<polyline style="fill:none;stroke:#000000;stroke-width:5.1024;stroke-linecap:round;stroke-linejoin:round;" points="
				6.8,-101.1 21.8,-111.4 28.9,-108.6 38.5,-122.8 45.6,-121.6 52.7,-132.6 			"/>
			<g>
				<polygon points="56.2,-124.4 64.9,-151.7 43.7,-132.4 				"/>
			</g>
		</g>
	</g>
	
		<polyline style="fill:none;stroke:#404041;stroke-width:5.1024;stroke-linecap:round;stroke-linejoin:round;stroke-miterlimit:10;" points="
		61.9,-96.4 6.8,-96.4 6.8,-144.9 	"/>
</g>
<g>
	<path d="M48.9-21.7H35.9c-1.6,0-2.6-1-2.6-2.6s1-2.6,2.6-2.6h13.1c5.8,0,11-4.7,11-11v-19.4c0-6.3-4.7-11-11.5-11H22.8
		c-5.8,0.5-10.5,5.2-10.5,11v6.3c0,1.6-1,2.6-2.6,2.6S7.1-49,7.1-50.5v-6.8c0-8.9,7.3-16.2,16.2-16.2h25.1c9.4,0,16.7,6.8,16.7,16.2
		V-38C64.6-29.1,57.8-21.7,48.9-21.7z"/>
	<circle cx="9.7" cy="-24.4" r="2.6"/>
	<path d="M28-21.7c-1.6,0-2.6-1-2.6-2.6c0-8.9-7.3-15.7-15.7-15.7c-1.6,0-2.6-1-2.6-2.6c0-1.6,1-2.6,2.6-2.6
		c11.5,0,20.9,9.4,20.9,20.9C30.6-22.8,29.1-21.7,28-21.7z"/>
	<path d="M18.6-21.7c-1.6,0-2.6-1-2.6-2.6c0-3.7-3.1-6.8-6.8-6.8c-1.6,0-2.6-1-2.6-2.6c0-1.6,1-2.6,2.6-2.6
		c6.3,0,11.5,5.2,11.5,11.5C21.2-22.8,20.2-21.7,18.6-21.7z"/>
</g>
<path style="fill:#231F20;" d="M35.9,1.1c-8.1,0-14.6,3.7-19.4,8.1c-4.7,4.4-7.9,9.6-9.3,13.2c-0.3,0.8-0.3,1.7,0,2.5
	c1.5,3.6,4.6,8.8,9.3,13.2c4.7,4.4,11.2,8.1,19.4,8.1s14.6-3.7,19.4-8.1c4.7-4.4,7.9-9.6,9.3-13.2c0.3-0.8,0.3-1.7,0-2.5
	c-1.5-3.6-4.6-8.8-9.3-13.2C50.5,4.8,44,1.1,35.9,1.1z M21.4,23.6c0-8,6.5-14.5,14.5-14.5s14.5,6.5,14.5,14.5s-6.5,14.5-14.5,14.5
	S21.4,31.6,21.4,23.6z M35.9,17.2c0,3.5-2.9,6.4-6.4,6.4c-0.7,0-1.4-0.1-2-0.3c-0.6-0.2-1.2,0.2-1.2,0.7c0,0.7,0.1,1.4,0.3,2.1
	c1.4,5.1,6.7,8.2,11.8,6.8c5.1-1.4,8.2-6.7,6.8-11.8c-1.1-4.2-4.8-7-8.9-7.1c-0.6,0-0.9,0.6-0.7,1.2C35.7,15.8,35.9,16.5,35.9,17.2
	L35.9,17.2z"/>
</svg>
