<?xml version="1.0" encoding="UTF-8"?>
<svg xmlns="http://www.w3.org/2000/svg" version="1.1" viewBox="0 0 71.7 61.1">
  <!-- Generator: Adobe Illustrator 28.7.0, SVG Export Plug-In . SVG Version: 1.2.0 Build 136)  -->
  <g>
    <g id="Layer_1">
      <g>
        <path d="M54.59,5.4c3.54,0,6.41,2.88,6.41,6.41v37.48c0,3.54-2.88,6.41-6.41,6.41H17.11c-3.54,0-6.41-2.88-6.41-6.41V11.81c0-3.54,2.88-6.41,6.41-6.41h37.48M54.59,1.4H17.11c-5.75,0-10.41,4.66-10.41,10.41v37.48c0,5.75,4.66,10.41,10.41,10.41h37.48c5.75,0,10.41-4.66,10.41-10.41V11.81c0-5.75-4.66-10.41-10.41-10.41h0Z"/>
        <path d="M61.67,35.81l-12.43-12.32c-1.29-1.28-3.45-.94-4.29.67l-5.86,11.29c-.81,1.56-2.88,1.94-4.19.76l-1.98-1.78c-1.15-1.03-2.94-.89-3.9.32l-15.73,19.66v2.16l44.56.96,5.19-6.56-1.37-15.17Z"/>
        <circle cx="22.99" cy="18.01" r="6.91"/>
      </g>
    </g>
  </g>
</svg>