<?xml version="1.0" encoding="utf-8"?>
<!-- Generator: Adobe Illustrator 27.9.4, SVG Export Plug-In . SVG Version: 9.03 Build 54784)  -->
<svg version="1.1" id="Layer_1" xmlns="http://www.w3.org/2000/svg" xmlns:xlink="http://www.w3.org/1999/xlink" x="0px" y="0px"
	 viewBox="0 0 71.7 61.1" style="enable-background:new 0 0 71.7 61.1;" xml:space="preserve">
<g>
	<g>
		<path d="M61,17.2v31.9c0,3.7-3,6.6-6.6,6.6h-37c-3.7,0-6.6-3-6.6-6.6V17.2H61 M65,13.2H6.7v35.9c0,5.9,4.8,10.6,10.6,10.6h37
			c5.9,0,10.6-4.8,10.6-10.6V13.2L65,13.2z"/>
	</g>
	<path d="M6.7,13.2V12c0-5.9,4.8-10.6,10.6-10.6h37C60.2,1.4,65,6.2,65,12v1.1L6.7,13.2z"/>
	<line style="fill:none;stroke:#000000;stroke-width:3;stroke-miterlimit:10;" x1="65" y1="13.2" x2="6.7" y2="13.2"/>
	<circle style="fill-rule:evenodd;clip-rule:evenodd;fill:#404041;" cx="17.4" cy="49.1" r="4"/>
	<circle style="fill-rule:evenodd;clip-rule:evenodd;fill:#404041;" cx="29.7" cy="49.1" r="4"/>
	<circle style="fill-rule:evenodd;clip-rule:evenodd;fill:#404041;" cx="42.1" cy="49.1" r="4"/>
	<circle style="fill-rule:evenodd;clip-rule:evenodd;fill:#404041;" cx="17.4" cy="36.7" r="4"/>
	<circle style="fill-rule:evenodd;clip-rule:evenodd;fill:#404041;" cx="29.7" cy="36.7" r="4"/>
	<circle style="fill-rule:evenodd;clip-rule:evenodd;fill:#404041;" cx="42.1" cy="36.7" r="4"/>
	<circle style="fill-rule:evenodd;clip-rule:evenodd;fill:#404041;" cx="54.4" cy="36.7" r="4"/>
	<circle style="fill-rule:evenodd;clip-rule:evenodd;fill:#404041;" cx="29.7" cy="24.4" r="4"/>
	<circle style="fill-rule:evenodd;clip-rule:evenodd;fill:#404041;" cx="42.1" cy="24.4" r="4"/>
	<circle style="fill-rule:evenodd;clip-rule:evenodd;fill:#404041;" cx="54.4" cy="24.4" r="4"/>
</g>
</svg>
