<?xml version="1.0" encoding="utf-8"?>
<!-- Generator: Adobe Illustrator 27.9.4, SVG Export Plug-In . SVG Version: 9.03 Build 54784)  -->
<svg version="1.1" id="Layer_1" xmlns="http://www.w3.org/2000/svg" xmlns:xlink="http://www.w3.org/1999/xlink" x="0px" y="0px"
	 viewBox="0 0 71.7 52.3" style="enable-background:new 0 0 71.7 52.3;" xml:space="preserve">
<g>
	<circle style="fill-rule:evenodd;clip-rule:evenodd;fill:#231F20;" cx="17.3" cy="9" r="7.9"/>
	<path style="fill-rule:evenodd;clip-rule:evenodd;fill:#231F20;" d="M17.3,20.9c-8.8,0-15.9,9.3-15.9,20.7c0,1.9,0.2,3.7,0.6,5.4
		c4.7,2.8,9.8,4.3,15.3,4.3s10.6-1.6,15.3-4.3c0.4-1.7,0.6-3.5,0.6-5.4C33.1,30.2,26,20.9,17.3,20.9z"/>
	<circle style="fill-rule:evenodd;clip-rule:evenodd;fill:#231F20;" cx="54.5" cy="9" r="7.9"/>
	<path style="fill-rule:evenodd;clip-rule:evenodd;fill:#231F20;" d="M54.5,20.9c-8.8,0-15.9,9.3-15.9,20.7c0,1.9,0.2,3.7,0.6,5.4
		c4.7,2.8,9.8,4.3,15.3,4.3s10.6-1.6,15.3-4.3c0.4-1.7,0.6-3.5,0.6-5.4C70.3,30.2,63.2,20.9,54.5,20.9z"/>
</g>
</svg>
