<?xml version="1.0" encoding="utf-8"?>
<!-- Generator: Adobe Illustrator 27.9.4, SVG Export Plug-In . SVG Version: 9.03 Build 54784)  -->
<svg version="1.1" id="Layer_1" xmlns="http://www.w3.org/2000/svg" xmlns:xlink="http://www.w3.org/1999/xlink" x="0px" y="0px"
	 viewBox="0 0 71.7 54.3" style="enable-background:new 0 0 71.7 54.3;" xml:space="preserve">
<g>
	<path d="M48.9,53H35.9c-1.6,0-2.6-1-2.6-2.6c0-1.6,1-2.6,2.6-2.6h13.1c5.8,0,11-4.7,11-11V17.5c0-6.3-4.7-11-11.5-11H22.8
		C17,7,12.3,11.7,12.3,17.5v6.3c0,1.6-1,2.6-2.6,2.6s-2.6-0.5-2.6-2.1v-6.8c0-8.9,7.3-16.2,16.2-16.2h25.1c9.4,0,16.7,6.8,16.7,16.2
		v19.4C64.6,45.7,57.8,53,48.9,53z"/>
	<circle cx="9.7" cy="50.4" r="2.6"/>
	<path d="M28,53c-1.6,0-2.6-1-2.6-2.6c0-8.9-7.3-15.7-15.7-15.7c-1.6,0-2.6-1-2.6-2.6c0-1.6,1-2.6,2.6-2.6
		c11.5,0,20.9,9.4,20.9,20.9C30.6,52,29.1,53,28,53z"/>
	<path d="M18.6,53C17,53,16,52,16,50.4c0-3.7-3.1-6.8-6.8-6.8c-1.6,0-2.6-1-2.6-2.6c0-1.6,1-2.6,2.6-2.6c6.3,0,11.5,5.2,11.5,11.5
		C21.2,52,20.2,53,18.6,53z"/>
</g>
</svg>
