<svg preserveAspectRatio="xMidYMid meet"  xmlns="http://www.w3.org/2000/svg" viewBox="0 0 125 181" height="181">
    <g>
        <path stroke-width="4" stroke="#506CFF" fill-opacity=".15" fill="#506CFF" d="M123 62.5v56c0 33.413-27.087 60.5-60.5 60.5S2 151.913 2 118.5v-56C2 29.087 29.087 2 62.5 2S123 29.087 123 62.5z"></path>
        <path fill="#506CFF" d="M101 81.3c-1.2-1.2-3.1-1.2-4.2 0l-6.4 6.4c-.3-6.9-3.2-13.6-8.1-18.5-5.4-5.3-12.4-8.2-19.9-8.2-7.5 0-14.5 2.9-19.8 8.2-1.2 1.2-1.2 3.1 0 4.2 1.2 1.2 3.1 1.2 4.2 0C51 69.3 56.6 67 62.4 67c5.8 0 11.4 2.3 15.6 6.4 4.1 4.1 6.3 9.5 6.4 15.1l-6.8-6.8c-1.2-1.2-3.1-1.2-4.2 0-1.2 1.2-1.2 3.1 0 4.2l10.9 10.9c.2.3.5.5.8.7.5.5 1.3.8 2 .8.8 0 1.6-.3 2.1-.9L101 85.6c1.2-1.2 1.2-3.1 0-4.3Z"></path>
        <path fill="#506CFF" d="M78 104.599c-2.6 2.6-5.9 4.5-9.4 5.6-7.7 2.3-16.1.1-21.7-5.6-4.1-4.099-6.3-9.5-6.4-15.1l6.9 6.9c1.2 1.2 3.1 1.2 4.2 0 1.2-1.2 1.2-3.1 0-4.2L40 80.5c-1.2-1.2-3.1-1.2-4.2 0L23.9 92.4c-1.2 1.2-1.2 3.1 0 4.2.6.6 1.4.9 2.1.9.7 0 1.5-.3 2.1-.9l6.3-6.3c.3 6.9 3.2 13.4 8.2 18.5 5.4 5.3 12.5 8.2 19.8 8.2 2.6 0 5.3-.4 7.9-1.1 4.5-1.3 8.6-3.8 11.9-7.1 1.2-1.2 1.2-3.1 0-4.2-1.1-1.2-3-1.2-4.2 0Z"></path>
    </g>
</svg>