<svg preserveAspectRatio="xMidYMid meet" xmlns="http://www.w3.org/2000/svg" viewBox="1.637 0 36 36">
    <g>
        <path fill="#58CB81" d="M37.637 18c0 9.941-8.059 18-18 18s-18-8.059-18-18 8.059-18 18-18 18 8.059 18 18z" data-color="1"></path>
        <path fill="#161616" d="M17.83 25.896c-.541 0-.997-.228-1.368-.684l-4.715-5.874a1.858 1.858 0 0 1-.313-.51 1.514 1.514 0 0 1-.093-.52c0-.395.132-.72.394-.974.263-.263.599-.394 1.008-.394.456 0 .838.197 1.147.59l3.893 5.006 7.53-11.98c.178-.262.36-.448.545-.556.186-.116.417-.173.695-.173.402 0 .73.127.985.382.263.247.394.568.394.962 0 .154-.027.312-.081.475a1.897 1.897 0 0 1-.243.51l-8.412 13.021c-.324.48-.78.719-1.367.719Z" data-color="2"></path>
    </g>
</svg>